<svg width="69" height="14" viewBox="0 0 69 14" fill="none" xmlns="http://www.w3.org/2000/svg">
<path d="M4.14551 13.1387V12.8837L5.33551 12.5437V9.99367H0.490513L0.150513 9.48367L6.52551 1.06867H8.14051V9.22867H9.92551V9.99367H8.14051V12.5437L9.33051 12.8837V13.1387H4.14551ZM1.08551 9.22867H5.33551V3.61867L1.08551 9.22867ZM15.6909 13.3937C14.2629 13.3937 13.1806 13.1103 12.4439 12.5437C11.7186 11.977 11.3559 11.2403 11.3559 10.3337C11.3559 9.71034 11.6279 9.10967 12.1719 8.53167C12.7159 7.94234 13.3789 7.523 14.1609 7.27367C13.4129 6.85434 12.8406 6.39534 12.4439 5.89667C12.0586 5.38667 11.8659 4.769 11.8659 4.04367C11.8659 3.137 12.2286 2.40034 12.9539 1.83367C13.6906 1.267 14.7729 0.983671 16.2009 0.983671C16.9149 0.983671 17.5382 1.114 18.0709 1.37467C18.6149 1.63534 19.0342 1.97534 19.3289 2.39467C19.6236 2.814 19.7709 3.25034 19.7709 3.70367C19.7709 4.23634 19.5386 4.752 19.0739 5.25067C18.6206 5.74934 18.0879 6.08367 17.4759 6.25367C18.5072 6.707 19.2892 7.24534 19.8219 7.86867C20.3546 8.492 20.6209 9.257 20.6209 10.1637C20.6209 10.753 20.4396 11.2913 20.0769 11.7787C19.7142 12.266 19.1646 12.657 18.4279 12.9517C17.6912 13.2463 16.7789 13.3937 15.6909 13.3937ZM16.9659 5.91367C17.3966 5.721 17.7422 5.44334 18.0029 5.08067C18.2749 4.718 18.4109 4.259 18.4109 3.70367C18.4109 3.29567 18.3089 2.916 18.1049 2.56467C17.9122 2.21334 17.6572 1.93567 17.3399 1.73167C17.0339 1.51634 16.7109 1.40867 16.3709 1.40867C15.8836 1.40867 15.4756 1.60134 15.1469 1.98667C14.8296 2.36067 14.6709 2.87634 14.6709 3.53367C14.6709 4.44034 15.4359 5.23367 16.9659 5.91367ZM15.5209 12.9687C16.2462 12.9687 16.8072 12.7703 17.2039 12.3737C17.6119 11.9657 17.8159 11.399 17.8159 10.6737C17.8159 10.1297 17.5439 9.58001 16.9999 9.02467C16.4559 8.46934 15.7362 7.99901 14.8409 7.61367C14.2062 7.84034 13.7076 8.18034 13.3449 8.63367C12.9822 9.07567 12.8009 9.64234 12.8009 10.3337C12.8009 10.8097 12.9199 11.2517 13.1579 11.6597C13.4072 12.0563 13.7359 12.3737 14.1439 12.6117C14.5632 12.8497 15.0222 12.9687 15.5209 12.9687ZM26.7495 12.8837L27.7695 12.6287V1.74867L26.7495 1.49367V1.23867H31.0845C33.1132 1.23867 34.6659 1.76 35.7425 2.80267C36.8305 3.84534 37.3745 5.30734 37.3745 7.18867C37.3745 9.07 36.8305 10.532 35.7425 11.5747C34.6659 12.6173 33.1132 13.1387 31.0845 13.1387H26.7495V12.8837ZM31.0845 12.7137C32.1385 12.7137 32.9545 12.2887 33.5325 11.4387C34.1105 10.5773 34.3995 9.16067 34.3995 7.18867C34.3995 5.21667 34.1105 3.80567 33.5325 2.95567C32.9545 2.09434 32.1385 1.66367 31.0845 1.66367H30.5745V12.7137H31.0845ZM37.1972 12.8837L38.5572 12.3737L43.2322 1.06867H43.7422L48.5872 12.6287L49.4372 12.8837V13.1387H47.3972C46.8079 13.1387 46.3262 13.0083 45.9522 12.7477C45.5782 12.4757 45.3006 12.1243 45.1192 11.6937L44.2522 9.65367H40.1892L39.0672 12.3737L40.3422 12.8837V13.1387H37.1972V12.8837ZM40.3592 9.22867H44.0822L42.2122 4.75767L40.3592 9.22867ZM51.2116 12.8837L52.2316 12.6287V8.71867L48.7466 1.74867L47.8966 1.49367V1.23867H50.0216C50.6109 1.23867 51.0813 1.36334 51.4326 1.61267C51.7953 1.862 52.0899 2.219 52.3166 2.68367L54.8326 7.69867L57.4166 2.00367L56.1416 1.49367V1.23867H59.3716V1.49367L58.0116 2.00367L55.0366 8.54867V12.6287L56.0566 12.8837V13.1387H51.2116V12.8837ZM63.7026 13.3937C62.898 13.3937 62.1443 13.2123 61.4416 12.8497C61.1243 12.691 60.858 12.504 60.6426 12.2887C60.484 12.5493 60.2856 12.7817 60.0476 12.9857C59.8436 13.133 59.7303 13.2123 59.7076 13.2237H59.2826V9.99367H59.9626C60.1326 10.549 60.3706 11.0477 60.6766 11.4897C61.368 12.4757 62.2633 12.9687 63.3626 12.9687C64.0086 12.9687 64.5243 12.776 64.9096 12.3907C65.295 12.0053 65.4876 11.4897 65.4876 10.8437C65.4876 10.4697 65.3743 10.1353 65.1476 9.84067C64.9323 9.54601 64.6603 9.28534 64.3316 9.05867C64.003 8.832 63.544 8.54867 62.9546 8.20867C62.2066 7.78934 61.6003 7.40967 61.1356 7.06967C60.671 6.72967 60.2743 6.30467 59.9456 5.79467C59.617 5.27334 59.4526 4.66134 59.4526 3.95867C59.4526 3.40334 59.6056 2.90467 59.9116 2.46267C60.229 2.00934 60.6993 1.65234 61.3226 1.39167C61.946 1.11967 62.711 0.983671 63.6176 0.983671C64.275 0.983671 64.9323 1.17067 65.5896 1.54467C65.839 1.68067 66.0883 1.862 66.3376 2.08867C66.5303 1.794 66.7286 1.56167 66.9326 1.39167C67.1366 1.24434 67.25 1.165 67.2726 1.15367H67.6976V4.38367H67.0176C66.8703 3.83967 66.6493 3.34667 66.3546 2.90467C66.0826 2.474 65.7426 2.117 65.3346 1.83367C64.938 1.55034 64.479 1.40867 63.9576 1.40867C63.5156 1.40867 63.136 1.58434 62.8186 1.93567C62.5013 2.287 62.3426 2.73467 62.3426 3.27867C62.3426 3.698 62.4616 4.07767 62.6996 4.41767C62.949 4.74634 63.2493 5.03534 63.6006 5.28467C63.9633 5.534 64.4506 5.83434 65.0626 6.18567C65.7766 6.59367 66.3546 6.95634 66.7966 7.27367C67.2386 7.59101 67.6126 7.98767 67.9186 8.46367C68.2246 8.92834 68.3776 9.46667 68.3776 10.0787C68.3776 10.6907 68.202 11.2517 67.8506 11.7617C67.4993 12.2603 66.9723 12.657 66.2696 12.9517C65.567 13.2463 64.7113 13.3937 63.7026 13.3937Z" fill="white"/>
</svg>
